# xmcd
#
# Track frame offsets:
#	150
#	90073
#	104377
#	117947
#	137573
#	153596
#	168845
#
# Disc length: 2395 seconds
#
# Revision: 14
# Processed by: cddbd v1.5.2PL0 Copyright (c) Steve Scherf et al.
# Submitted via: Jack! The Knife 20 Magnifico
#
DISCID=49095907
DTITLE=Venom - At War With Satan
DYEAR=1984
DGENRE=Metal
TTITLE0=At War With Satan
TTITLE1=Rip Ride
TTITLE2=Genocide
TTITLE3=Cry Wolf
TTITLE4=Stand Up (And Be Counted)
TTITLE5=Women Leather And Hell
TTITLE6=Aaaaaarrghh
EXTD=Venom
EXTT0=Cronos, Mantas
EXTT1=Cronos, Mantas
EXTT2=Cronos, Mantas
EXTT3=Cronos, Mantas
EXTT4=Cronos, Mantas
EXTT5=Cronos, Mantas
EXTT6=Cronos, Mantas
PLAYORDER=
